# xmcd CD database file
#
# Track frame offsets:
#	150
#	11558
#	23548
#	36561
#	49666
#	60899
#	73089
#	83541
#	95041
#	108869
#	120314
#	131121
#	144276
#	154926
#
# Disc length: 2245 seconds
#
# Revision: 0
# Processed by: cddbd v1.5.2PL0 Copyright (c) Steve Scherf et al.
# Submitted via: CDex 1.70beta2
#
DISCID=ae08c30e
DTITLE=Robert Johnson - Blues Masters
DYEAR=1900
DGENRE=Blues
TTITLE0=Love in vain
TTITLE1=Me and the devil Blues
TTITLE2=Traveling riverside Blues
TTITLE3=When you got a friend
TTITLE4=Drunken hearted man
TTITLE5=Phonograph Blues
TTITLE6=Milkcow's calf Blues
TTITLE7=Walking Blues
TTITLE8=Sweet home Chicago
TTITLE9=Stones in my passway
TTITLE10=Stop breakin' down Blues
TTITLE11=Preaching Blues (Up jumped the Devil)
TTITLE12=Malted milk
TTITLE13=They're red hot
EXTD=
EXTT0=
EXTT1=
EXTT2=
EXTT3=
EXTT4=
EXTT5=
EXTT6=
EXTT7=
EXTT8=
EXTT9=
EXTT10=
EXTT11=
EXTT12=
EXTT13=
PLAYORDER=
